<?xml version="1.0" encoding="utf-8"?>
<!-- Generator: Adobe Illustrator 16.2.0, SVG Export Plug-In . SVG Version: 6.00 Build 0)  -->
<!DOCTYPE svg PUBLIC "-//W3C//DTD SVG 1.1//EN" "http://www.w3.org/Graphics/SVG/1.1/DTD/svg11.dtd">
<svg version="1.1" id="Layer_1" xmlns="http://www.w3.org/2000/svg" xmlns:xlink="http://www.w3.org/1999/xlink" x="0px" y="0px"
	 width="1920px" height="1080px" viewBox="0 0 1920 1080" enable-background="new 0 0 1920 1080" xml:space="preserve">
<path fill="#FFFFFF" d="M584,832c-4.54,0-9.07-0.1-13.56-0.31C579.2,831.81,584,832,584,832z"/>
<path fill="#FFFFFF" d="M584,248c0,0-4.8,0.19-13.56,0.31C574.93,248.1,579.46,248,584,248z"/>
<path fill="#FFFFFF" d="M876,540c0,161.27-130.73,292-292,292c0,0-4.8-0.19-13.56-0.31c-74.98-1-440.29,3.56-570.44,182.189V66.12
	c130.15,178.63,495.46,183.19,570.44,182.19C579.2,248.19,584,248,584,248C745.27,248,876,378.73,876,540z"/>
</svg>
